# Blender 4.5.3 LTS
# www.blender.org
mtllib Road.mtl
o group1266234480
v -0.105834 -0.014361 -0.010851
v -0.065727 -0.014361 -0.010851
v -0.065727 0.005299 -0.010851
v -0.105834 0.005299 -0.010851
v -0.105834 -0.014361 0.008388
v -0.105834 0.005299 0.008388
v -0.065727 0.005299 0.008388
v -0.065727 -0.014361 0.008388
vn -0.0000 -0.0000 -1.0000
vn -0.0000 -0.0000 1.0000
vn -0.0000 -1.0000 -0.0000
vn -0.0000 1.0000 -0.0000
vn -1.0000 -0.0000 -0.0000
vn 1.0000 -0.0000 -0.0000
vt -0.122060 0.044333
vt -0.120266 0.047920
vt -0.118508 0.047041
vt -0.120302 0.043453
vt 0.118508 0.047041
vt 0.120266 0.047920
vt 0.122060 0.044333
vt 0.120302 0.043453
vt -0.041272 0.003140
vt -0.039460 0.002493
vt -0.040809 -0.001284
vt -0.042621 -0.000637
vt 0.040809 -0.001284
vt 0.039460 0.002493
vt 0.041272 0.003140
vt 0.042621 -0.000637
vt -0.042915 0.125459
vt -0.044058 0.127059
vt -0.042492 0.128177
vt -0.041350 0.126577
vt 0.042492 0.128177
vt 0.044058 0.127059
vt 0.042915 0.125459
vt 0.041350 0.126577
s 1
usemtl mat21
f 4/1/1 3/2/1 2/3/1 1/4/1
f 8/5/2 7/6/2 6/7/2 5/8/2
f 2/9/3 8/10/3 5/11/3 1/12/3
f 6/13/4 7/14/4 3/15/4 4/16/4
f 5/17/5 6/18/5 4/19/5 1/20/5
f 3/21/6 7/22/6 8/23/6 2/24/6
o group1437559802
v 0.254166 -0.013129 -0.010851
v 0.294273 -0.013130 -0.010851
v 0.294273 0.006531 -0.010851
v 0.254166 0.006531 -0.010851
v 0.254166 -0.013129 0.008388
v 0.254166 0.006531 0.008388
v 0.294273 0.006531 0.008388
v 0.294273 -0.013129 0.008388
vn -0.0000 -0.0000 -1.0000
vn -0.0000 -0.0000 1.0000
vn -0.0000 -1.0000 -0.0000
vn -0.0000 1.0000 -0.0000
vn -1.0000 -0.0000 -0.0000
vn 1.0000 -0.0000 -0.0000
vt -0.105960 0.076532
vt -0.104167 0.080119
vt -0.102408 0.079240
vt -0.104202 0.075653
vt 0.102408 0.079240
vt 0.104167 0.080119
vt 0.105960 0.076532
vt 0.104202 0.075653
vt -0.029164 0.037043
vt -0.027352 0.036396
vt -0.028701 0.032619
vt -0.030513 0.033266
vt 0.028701 0.032619
vt 0.027352 0.036396
vt 0.029164 0.037043
vt 0.030513 0.033266
vt -0.042915 0.125459
vt -0.044058 0.127059
vt -0.042492 0.128177
vt -0.041350 0.126577
vt 0.042492 0.128177
vt 0.044058 0.127059
vt 0.042915 0.125459
vt 0.041350 0.126577
s 1
usemtl mat21
f 12/25/7 11/26/7 10/27/7 9/28/7
f 16/29/8 15/30/8 14/31/8 13/32/8
f 10/33/9 16/34/9 13/35/9 9/36/9
f 14/37/10 15/38/10 11/39/10 12/40/10
f 13/41/11 14/42/11 12/43/11 9/44/11
f 11/45/12 15/46/12 16/47/12 10/48/12
o group1517981274
v -0.006975 -0.013956 -0.010904
v 0.033132 -0.013956 -0.010904
v 0.033132 0.005704 -0.010904
v -0.006975 0.005705 -0.010904
v -0.006975 -0.013956 0.008335
v -0.006975 0.005705 0.008335
v 0.033132 0.005704 0.008335
v 0.033132 -0.013956 0.008335
vn -0.0000 -0.0000 -1.0000
vn -0.0000 -0.0000 1.0000
vn -0.0000 -1.0000 -0.0000
vn -0.0000 1.0000 -0.0000
vn -1.0000 -0.0000 -0.0000
vn 1.0000 -0.0000 -0.0000
vt -0.117624 0.053167
vt -0.115830 0.056755
vt -0.114072 0.055875
vt -0.115865 0.052288
vt 0.114072 0.055875
vt 0.115830 0.056754
vt 0.117624 0.053167
vt 0.115865 0.052288
vt -0.037952 0.012452
vt -0.036140 0.011805
vt -0.037489 0.008028
vt -0.039301 0.008675
vt 0.037489 0.008028
vt 0.036140 0.011805
vt 0.037952 0.012452
vt 0.039301 0.008675
vt -0.042901 0.125448
vt -0.044044 0.127048
vt -0.042478 0.128166
vt -0.041335 0.126566
vt 0.042478 0.128166
vt 0.044044 0.127048
vt 0.042901 0.125448
vt 0.041335 0.126566
s 1
usemtl mat21
f 20/49/13 19/50/13 18/51/13 17/52/13
f 24/53/14 23/54/14 22/55/14 21/56/14
f 18/57/15 24/58/15 21/59/15 17/60/15
f 22/61/16 23/62/16 19/63/16 20/64/16
f 21/65/17 22/66/17 20/67/17 17/68/17
f 19/69/18 23/70/18 24/71/18 18/72/18
o group1691973700
v -0.296594 -0.014851 -0.010851
v -0.256488 -0.014851 -0.010851
v -0.256488 0.004809 -0.010851
v -0.296594 0.004809 -0.010851
v -0.296594 -0.014851 0.008388
v -0.296594 0.004809 0.008388
v -0.256488 0.004809 0.008388
v -0.256488 -0.014851 0.008388
vn -0.0000 -0.0000 -1.0000
vn -0.0000 -0.0000 1.0000
vn -0.0000 -1.0000 -0.0000
vn -0.0000 1.0000 -0.0000
vn -1.0000 -0.0000 -0.0000
vn 1.0000 -0.0000 -0.0000
vt -0.130591 0.027271
vt -0.128798 0.030858
vt -0.127039 0.029979
vt -0.128833 0.026391
vt 0.127039 0.029979
vt 0.128798 0.030858
vt 0.130591 0.027270
vt 0.128833 0.026391
vt -0.047688 -0.014825
vt -0.045876 -0.015472
vt -0.047225 -0.019249
vt -0.049037 -0.018602
vt 0.047225 -0.019249
vt 0.045876 -0.015472
vt 0.047688 -0.014825
vt 0.049037 -0.018602
vt -0.042915 0.125459
vt -0.044058 0.127059
vt -0.042492 0.128177
vt -0.041350 0.126577
vt 0.042492 0.128177
vt 0.044058 0.127059
vt 0.042915 0.125459
vt 0.041350 0.126577
s 1
usemtl mat21
f 28/73/19 27/74/19 26/75/19 25/76/19
f 32/77/20 31/78/20 30/79/20 29/80/20
f 26/81/21 32/82/21 29/83/21 25/84/21
f 30/85/22 31/86/22 27/87/22 28/88/22
f 29/89/23 30/90/23 28/91/23 25/92/23
f 27/93/24 31/94/24 32/95/24 26/96/24
o group1797842388
v 0.083406 -0.013469 -0.010851
v 0.123512 -0.013469 -0.010851
v 0.123512 0.006191 -0.010851
v 0.083406 0.006191 -0.010851
v 0.083406 -0.013469 0.008388
v 0.083406 0.006191 0.008388
v 0.123512 0.006191 0.008388
v 0.123512 -0.013469 0.008388
vn -0.0000 -0.0000 -1.0000
vn -0.0000 -0.0000 1.0000
vn -0.0000 -1.0000 -0.0000
vn -0.0000 1.0000 -0.0000
vn -1.0000 -0.0000 -0.0000
vn 1.0000 -0.0000 -0.0000
vt -0.113567 0.061244
vt -0.111773 0.064831
vt -0.110014 0.063952
vt -0.111808 0.060364
vt 0.110014 0.063952
vt 0.111773 0.064831
vt 0.113567 0.061244
vt 0.111808 0.060364
vt -0.034907 0.020961
vt -0.033095 0.020314
vt -0.034444 0.016537
vt -0.036256 0.017184
vt 0.034444 0.016537
vt 0.033095 0.020314
vt 0.034907 0.020961
vt 0.036256 0.017184
vt -0.042895 0.125431
vt -0.044038 0.127031
vt -0.042472 0.128149
vt -0.041330 0.126549
vt 0.042473 0.128149
vt 0.044038 0.127031
vt 0.042895 0.125431
vt 0.041330 0.126549
s 1
usemtl mat21
f 36/97/25 35/98/25 34/99/25 33/100/25
f 40/101/26 39/102/26 38/103/26 37/104/26
f 34/105/27 40/106/27 37/107/27 33/108/27
f 38/109/28 39/110/28 35/111/28 36/112/28
f 37/113/29 38/114/29 36/115/29 33/116/29
f 35/117/30 39/118/30 40/119/30 34/120/30
o group1850925880
v -0.205834 -0.014723 -0.010851
v -0.165727 -0.014723 -0.010851
v -0.165727 0.004937 -0.010851
v -0.205834 0.004937 -0.010851
v -0.205834 -0.014723 0.008388
v -0.205834 0.004937 0.008388
v -0.165727 0.004937 0.008388
v -0.165727 -0.014723 0.008388
vn -0.0000 -0.0000 -1.0000
vn -0.0000 -0.0000 1.0000
vn -0.0000 -1.0000 -0.0000
vn -0.0000 1.0000 -0.0000
vn -1.0000 -0.0000 -0.0000
vn 1.0000 -0.0000 -0.0000
vt -0.126532 0.035388
vt -0.124738 0.038976
vt -0.122980 0.038096
vt -0.124774 0.034509
vt 0.122980 0.038096
vt 0.124738 0.038976
vt 0.126532 0.035388
vt 0.124774 0.034509
vt -0.044635 -0.006278
vt -0.042824 -0.006925
vt -0.044172 -0.010702
vt -0.045984 -0.010055
vt 0.044172 -0.010702
vt 0.042824 -0.006925
vt 0.044635 -0.006278
vt 0.045984 -0.010055
vt -0.042915 0.125459
vt -0.044058 0.127059
vt -0.042492 0.128177
vt -0.041350 0.126577
vt 0.042492 0.128177
vt 0.044058 0.127059
vt 0.042915 0.125459
vt 0.041350 0.126577
s 1
usemtl mat21
f 44/121/31 43/122/31 42/123/31 41/124/31
f 48/125/32 47/126/32 46/127/32 45/128/32
f 42/129/33 48/130/33 45/131/33 41/132/33
f 46/133/34 47/134/34 43/135/34 44/136/34
f 45/137/35 46/138/35 44/139/35 41/140/35
f 43/141/36 47/142/36 48/143/36 42/144/36
o group231937087
v 0.173406 -0.013129 -0.010745
v 0.213512 -0.013130 -0.010745
v 0.213512 0.006531 -0.010745
v 0.173406 0.006531 -0.010745
v 0.173406 -0.013129 0.008495
v 0.173406 0.006531 0.008495
v 0.213512 0.006531 0.008495
v 0.213512 -0.013129 0.008495
vn -0.0000 -0.0000 -1.0000
vn -0.0000 -0.0000 1.0000
vn -0.0000 -1.0000 -0.0000
vn -0.0000 1.0000 -0.0000
vn -1.0000 -0.0000 -0.0000
vn 1.0000 -0.0000 -0.0000
vt -0.109572 0.069309
vt -0.107778 0.072896
vt -0.106020 0.072017
vt -0.107814 0.068429
vt 0.106020 0.072017
vt 0.107778 0.072896
vt 0.109572 0.069309
vt 0.107814 0.068429
vt -0.031870 0.029433
vt -0.030058 0.028786
vt -0.031407 0.025009
vt -0.033219 0.025656
vt 0.031407 0.025009
vt 0.030058 0.028786
vt 0.031870 0.029433
vt 0.033219 0.025656
vt -0.042924 0.125453
vt -0.044066 0.127053
vt -0.042501 0.128171
vt -0.041358 0.126571
vt 0.042501 0.128171
vt 0.044066 0.127053
vt 0.042924 0.125453
vt 0.041358 0.126571
s 1
usemtl mat21
f 52/145/37 51/146/37 50/147/37 49/148/37
f 56/149/38 55/150/38 54/151/38 53/152/38
f 50/153/39 56/154/39 53/155/39 49/156/39
f 54/157/40 55/158/40 51/159/40 52/160/40
f 53/161/41 54/162/41 52/163/41 49/164/41
f 51/165/42 55/166/42 56/167/42 50/168/42
o group336620870
v 0.317924 0.007933 -0.220759
v -0.342657 0.005303 -0.223158
v -0.342589 -0.011571 -0.223280
v 0.317992 -0.008941 -0.220881
v -0.344202 -0.014812 0.224340
v -0.344269 0.002062 0.224462
v 0.316312 0.004692 0.226861
v 0.316379 -0.012182 0.226739
vn 0.0036 0.0072 -1.0000
vn -0.0036 -0.0072 1.0000
vn 0.0040 -1.0000 -0.0072
vn -0.0040 1.0000 0.0072
vn 1.0000 0.0040 0.0036
vn -1.0000 -0.0040 -0.0036
vt -0.101213 0.080824
vt -0.130426 0.021576
vt -0.131940 0.022322
vt -0.102726 0.081571
vt 0.101213 0.080824
vt 0.102726 0.081570
vt 0.131939 0.022322
vt 0.130426 0.021575
vt -0.048718 0.047252
vt -0.006655 0.031937
vt -0.029256 -0.030136
vt -0.071318 -0.014821
vt 0.048718 0.047252
vt 0.071318 -0.014821
vt 0.029256 -0.030136
vt 0.006655 0.031937
vt 0.025328 0.138575
vt 0.026330 0.139933
vt 0.062340 0.113342
vt 0.061337 0.111984
vt -0.025330 0.138575
vt -0.061339 0.111983
vt -0.062341 0.113341
vt -0.026332 0.139932
s 1
usemtl mat17
f 60/169/43 59/170/43 58/171/43 57/172/43
f 64/173/44 63/174/44 62/175/44 61/176/44
f 60/177/45 64/178/45 61/179/45 59/180/45
f 57/181/46 58/182/46 62/183/46 63/184/46
f 60/185/47 57/186/47 63/187/47 64/188/47
f 59/189/48 61/190/48 62/191/48 58/192/48
o group444322953
v 0.323512 -0.019693 0.228388
v 0.323512 -0.019693 0.358388
v 0.323512 0.010307 0.358388
v 0.323512 0.010307 0.228388
v -0.346488 -0.019693 0.228388
v -0.346488 0.010307 0.228388
v -0.346488 0.010307 0.358388
v -0.346488 -0.019693 0.358388
vn 1.0000 -0.0000 -0.0000
vn -1.0000 -0.0000 -0.0000
vn -0.0000 -1.0000 -0.0000
vn -0.0000 1.0000 -0.0000
vn -0.0000 -0.0000 -1.0000
vn -0.0000 -0.0000 1.0000
vt 0.061960 0.114271
vt 0.072539 0.106715
vt 0.070795 0.104274
vt 0.060216 0.111830
vt -0.070795 0.104274
vt -0.072538 0.106715
vt -0.061960 0.114271
vt -0.060216 0.111830
vt 0.006592 0.027378
vt -0.015942 -0.035719
vt -0.028185 -0.031347
vt -0.005650 0.031750
vt 0.028185 -0.031347
vt 0.015942 -0.035719
vt -0.006592 0.027378
vt 0.005650 0.031750
vt -0.130139 0.021466
vt -0.132822 0.022808
vt -0.102859 0.082735
vt -0.100176 0.081393
vt 0.102859 0.082735
vt 0.132822 0.022808
vt 0.130139 0.021466
vt 0.100176 0.081393
s 1
usemtl mat15
f 68/193/49 67/194/49 66/195/49 65/196/49
f 72/197/50 71/198/50 70/199/50 69/200/50
f 66/201/51 72/202/51 69/203/51 65/204/51
f 70/205/52 71/206/52 67/207/52 68/208/52
f 69/209/53 70/210/53 68/211/53 65/212/53
f 67/213/54 71/214/54 72/215/54 66/216/54
o group524283309
v 0.323512 -0.009693 -0.351612
v 0.323512 -0.009693 -0.221612
v 0.323512 0.020307 -0.221612
v 0.323512 0.020307 -0.351612
v -0.346488 -0.009693 -0.351612
v -0.346488 0.020307 -0.351612
v -0.346488 0.020307 -0.221612
v -0.346488 -0.009693 -0.221612
vn 1.0000 -0.0000 -0.0000
vn -1.0000 -0.0000 -0.0000
vn -0.0000 -1.0000 -0.0000
vn -0.0000 1.0000 -0.0000
vn -0.0000 -0.0000 -1.0000
vn -0.0000 -0.0000 1.0000
vt 0.015345 0.148797
vt 0.025923 0.141241
vt 0.024179 0.138800
vt 0.013601 0.146356
vt -0.024179 0.138800
vt -0.025923 0.141241
vt -0.015345 0.148797
vt -0.013601 0.146356
vt -0.048029 0.046885
vt -0.070563 -0.016211
vt -0.082806 -0.011839
vt -0.060271 0.051258
vt 0.082806 -0.011839
vt 0.070563 -0.016211
vt 0.048029 0.046885
vt 0.060271 0.051258
vt -0.131034 0.021913
vt -0.133717 0.023255
vt -0.103754 0.083182
vt -0.101070 0.081840
vt 0.103754 0.083182
vt 0.133717 0.023255
vt 0.131034 0.021913
vt 0.101070 0.081840
s 1
usemtl mat15
f 76/217/55 75/218/55 74/219/55 73/220/55
f 80/221/56 79/222/56 78/223/56 77/224/56
f 74/225/57 80/226/57 77/227/57 73/228/57
f 78/229/58 79/230/58 75/231/58 76/232/58
f 77/233/59 78/234/59 76/235/59 73/236/59
f 75/237/60 79/238/60 80/239/60 74/240/60
